<svg xmlns="http://www.w3.org/2000/svg" viewBox="0 0 183.73 46.68"><defs><style>.cls-1{fill:#104495;}</style></defs><title>logo_left</title><g id="Layer_2" data-name="Layer 2"><g id="Layer_1-2" data-name="Layer 1"><path class="cls-1" d="M6.17,15.42H0v-.57H1.91V.87H0V.3H6.17V.87h-2v14h2Z"/><path class="cls-1" d="M11.46,2.06a3.69,3.69,0,0,1-.71,2.08,6.9,6.9,0,0,1-2,1.9l-.26-.42C10,4.51,10.7,3.44,10.7,2.42q0-.72-.3-.72a1.85,1.85,0,0,0-.35.43,1.05,1.05,0,0,1-.89.42,1,1,0,0,1-.79-.31,1.08,1.08,0,0,1-.31-.81,1.35,1.35,0,0,1,.41-1A1.58,1.58,0,0,1,9.6,0a1.7,1.7,0,0,1,1.33.58A2.07,2.07,0,0,1,11.46,2.06Z"/><path class="cls-1" d="M28.54,15.42H24.33v-.53h1.31V8.36c0-.89-.39-1.34-1.18-1.34a2.34,2.34,0,0,0-1.85,1,3.93,3.93,0,0,0-.81,2.48v4.35H23v.53H18.78v-.53h1.27V8.4c0-.92-.42-1.38-1.24-1.38A2.18,2.18,0,0,0,17,8.23a5.33,5.33,0,0,0-.78,3v3.7H17.4v.53H13.28v-.53h1.2V7.11h-1.2V6.63a19.87,19.87,0,0,0,3-.23V8.61A3.32,3.32,0,0,1,19.32,6.4a2.7,2.7,0,0,1,1.8.57,2.08,2.08,0,0,1,.68,1.66A3.76,3.76,0,0,1,23,7a3,3,0,0,1,1.88-.57c1.67,0,2.5.93,2.5,2.79v5.7h1.15Z"/><path class="cls-1" d="M44.77,7.23c0,.5-.2.76-.6.76a.69.69,0,0,1-.57-.3q-.24-.3-.3-.3a.46.46,0,0,0-.34.22.71.71,0,0,0-.17.42,4.23,4.23,0,0,0,.13.51,3.49,3.49,0,0,1,.12.87,2.59,2.59,0,0,1-.41,1.41,2.8,2.8,0,0,1-1.15,1,3.63,3.63,0,0,1-1,.3,8.43,8.43,0,0,1-1.59.12,4,4,0,0,0-1.82.33,1,1,0,0,0-.62.89.43.43,0,0,0,.34.45A4.64,4.64,0,0,0,38,14h3.5c2,0,3,.91,3,2.73q0,3.68-4.93,3.67a5.8,5.8,0,0,1-3-.65,2,2,0,0,1-1.07-1.73c0-1.1.92-1.93,2.76-2.5a3.19,3.19,0,0,1-1.87-.5,1.43,1.43,0,0,1-.7-1.2c0-1.06.79-1.7,2.37-1.91a3.7,3.7,0,0,1-1.33-1.07,2.54,2.54,0,0,1-.42-1.47,2.76,2.76,0,0,1,.95-2.15,3.62,3.62,0,0,1,2.48-.84,3.32,3.32,0,0,1,2.71,1.15,2.52,2.52,0,0,1,.65-.89,1.29,1.29,0,0,1,.83-.26.91.91,0,0,1,.62.23A.76.76,0,0,1,44.77,7.23ZM43.69,17.34a1.45,1.45,0,0,0-.68-1.4,5,5,0,0,0-2.27-.38H39.2C37.73,16.18,37,17,37,18a1.53,1.53,0,0,0,.76,1.36,4.07,4.07,0,0,0,2.16.48,4.84,4.84,0,0,0,2.78-.68A2.11,2.11,0,0,0,43.69,17.34Zm-2.44-8a4.07,4.07,0,0,0-.32-1.9,1.31,1.31,0,0,0-1.22-.54,1.39,1.39,0,0,0-1.25.56,3.49,3.49,0,0,0-.36,1.84,4,4,0,0,0,.32,1.88,1.28,1.28,0,0,0,1.24.58,1.38,1.38,0,0,0,1.28-.51A4,4,0,0,0,41.25,9.32Z"/><path class="cls-1" d="M54.35,11a4.63,4.63,0,0,1-1.28,3.3,4.33,4.33,0,0,1-6.25,0,4.61,4.61,0,0,1-1.24-3.31,4.56,4.56,0,0,1,1.27-3.3A4.17,4.17,0,0,1,50,6.42,4.13,4.13,0,0,1,53.1,7.73,4.63,4.63,0,0,1,54.35,11Zm-2.12,0A8.67,8.67,0,0,0,51.86,8a1.85,1.85,0,0,0-1.89-1,1.8,1.8,0,0,0-1.81,1,7.86,7.86,0,0,0-.47,3.19,8.91,8.91,0,0,0,.37,3.11,2.17,2.17,0,0,0,3.73,0A7.86,7.86,0,0,0,52.23,11.07Z"/><path class="cls-1" d="M60.33,15.42H55.7v-.53h1.55V7.11h-1.5V6.63h.44A17.83,17.83,0,0,0,59,6.42v8.47h1.33Zm-1-13.49a1.13,1.13,0,0,1-1.14,1.15,1.1,1.1,0,0,1-.8-.34A1.1,1.1,0,0,1,57,1.93a1,1,0,0,1,.34-.8,1.16,1.16,0,0,1,1.6,0A1.07,1.07,0,0,1,59.32,1.93Z"/><path class="cls-1" d="M72.12,15.42H67.86v-.53h1.31V8.81c0-1.13-.48-1.7-1.44-1.7a2.42,2.42,0,0,0-2,1.09A4.4,4.4,0,0,0,65,10.92v4h1.22v.53H62v-.53h1.24V7.11H62V6.63h.41A13.68,13.68,0,0,0,65,6.4V9A3.5,3.5,0,0,1,68.37,6.4,2.61,2.61,0,0,1,70.23,7a2.37,2.37,0,0,1,.69,1.82v6h1.2Z"/><path class="cls-1" d="M82.64,7.23c0,.5-.2.76-.6.76a.72.72,0,0,1-.58-.3q-.22-.3-.3-.3a.45.45,0,0,0-.33.22.65.65,0,0,0-.17.42s0,.2.12.51a3.11,3.11,0,0,1,.13.87,2.68,2.68,0,0,1-.41,1.41,2.77,2.77,0,0,1-1.16,1,3.63,3.63,0,0,1-1,.3,8.24,8.24,0,0,1-1.58.12A4,4,0,0,0,75,12.6a1,1,0,0,0-.62.89.43.43,0,0,0,.33.45,4.73,4.73,0,0,0,1.21.1h3.5q2.94,0,2.94,2.73,0,3.68-4.92,3.67a5.75,5.75,0,0,1-3-.65,1.94,1.94,0,0,1-1.07-1.73c0-1.1.92-1.93,2.76-2.5a3.22,3.22,0,0,1-1.88-.5,1.43,1.43,0,0,1-.7-1.2c0-1.06.79-1.7,2.37-1.91a3.57,3.57,0,0,1-1.32-1.07,2.48,2.48,0,0,1-.43-1.47,2.73,2.73,0,0,1,1-2.15,3.59,3.59,0,0,1,2.47-.84,3.34,3.34,0,0,1,2.72,1.15,2.51,2.51,0,0,1,.64-.89,1.31,1.31,0,0,1,.83-.26.9.9,0,0,1,.62.23A.77.77,0,0,1,82.64,7.23ZM81.55,17.34a1.45,1.45,0,0,0-.67-1.4,5,5,0,0,0-2.27-.38H77.07c-1.48.62-2.21,1.44-2.21,2.46a1.53,1.53,0,0,0,.76,1.36,4,4,0,0,0,2.16.48,4.81,4.81,0,0,0,2.77-.68A2.11,2.11,0,0,0,81.55,17.34Zm-2.44-8a4,4,0,0,0-.32-1.9,1.29,1.29,0,0,0-1.22-.54,1.37,1.37,0,0,0-1.24.56A3.38,3.38,0,0,0,76,9.28a4.12,4.12,0,0,0,.32,1.88,1.3,1.3,0,0,0,1.25.58,1.37,1.37,0,0,0,1.27-.51A4,4,0,0,0,79.11,9.32Z"/><path class="cls-1" d="M94.49,14.34a2.89,2.89,0,0,1-2.39,1.38,1.63,1.63,0,0,1-1.82-1.87V7.11H89V6.63h1.29V3.84l.61,0h.72l.42-.1V6.63h2v.48H92v6.54a2.1,2.1,0,0,0,.16,1c.1.18.34.27.7.27s.83-.29,1.24-.86Z"/><path class="cls-1" d="M104.25,11a4.59,4.59,0,0,1-1.28,3.3,4.33,4.33,0,0,1-6.25,0,4.65,4.65,0,0,1-1.24-3.31,4.57,4.57,0,0,1,1.28-3.3,4.36,4.36,0,0,1,6.25,0A4.62,4.62,0,0,1,104.25,11Zm-2.12,0A9,9,0,0,0,101.77,8a1.85,1.85,0,0,0-1.89-1,1.81,1.81,0,0,0-1.82,1,7.9,7.9,0,0,0-.46,3.19A8.67,8.67,0,0,0,98,14.16a1.86,1.86,0,0,0,1.88,1.08,1.88,1.88,0,0,0,1.85-1A7.9,7.9,0,0,0,102.13,11.07Z"/><path class="cls-1" d="M116.61,14.34a2.89,2.89,0,0,1-2.39,1.38,1.63,1.63,0,0,1-1.82-1.87V7.11h-1.29V6.63h1.29V3.84l.61,0h.72l.42-.1V6.63h2v.48h-2v6.54a2.1,2.1,0,0,0,.16,1c.11.18.34.27.71.27s.82-.29,1.23-.86Z"/><path class="cls-1" d="M127.66,15.42H123.4v-.53h1.31V8.79c0-1.13-.47-1.7-1.42-1.7a2.4,2.4,0,0,0-1.92,1.13,4.32,4.32,0,0,0-.85,2.69v4h1.2v.53h-4.19v-.53h1.2V.76h-1.2V.3c.51,0,1,0,1.43-.06s1-.09,1.56-.17V8.91a3.53,3.53,0,0,1,3.39-2.51,2.58,2.58,0,0,1,1.86.66,2.41,2.41,0,0,1,.69,1.85v6h1.2Z"/><path class="cls-1" d="M137.65,10.34h-6.44V11a6.46,6.46,0,0,0,.56,3.16,2.2,2.2,0,0,0,2.06.94,3.23,3.23,0,0,0,3.27-2.51h.5a3.69,3.69,0,0,1-4,3.09,4.41,4.41,0,0,1-3.2-1.27,4.21,4.21,0,0,1-1.29-3.13,4.83,4.83,0,0,1,1.32-3.45,4.24,4.24,0,0,1,3.24-1.41,4,4,0,0,1,2.82,1A4.4,4.4,0,0,1,137.65,10.34Zm-2.07-.65V9.46a3.46,3.46,0,0,0-.45-2,1.75,1.75,0,0,0-1.53-.62,2.13,2.13,0,0,0-1.72.71,3.27,3.27,0,0,0-.61,2.14Z"/><path class="cls-1" d="M156.48,15.42H156l-.72-.73a6.27,6.27,0,0,1-8.27-1A8.29,8.29,0,0,1,145.2,8.1,8.77,8.77,0,0,1,147,2.49,6.34,6.34,0,0,1,149.23.67,5.91,5.91,0,0,1,151.9,0a5.37,5.37,0,0,1,3.34,1.18L156,.48h.34V4.3h-.48q-1-3.76-4.05-3.77a3.17,3.17,0,0,0-3.09,1.93,15.05,15.05,0,0,0-.92,6.08,23.77,23.77,0,0,0,.15,3,5.18,5.18,0,0,0,.63,1.92,3.41,3.41,0,0,0,1.28,1.25,3.52,3.52,0,0,0,1.72.44q3.36,0,4.46-3.8h.44Z"/><path class="cls-1" d="M167.85,13.93a1.91,1.91,0,0,1-.59,1.31,1.83,1.83,0,0,1-1.3.48c-.9,0-1.4-.49-1.49-1.47a2.93,2.93,0,0,1-1.3,1.07,4.51,4.51,0,0,1-1.91.4,2.84,2.84,0,0,1-1.85-.56,1.86,1.86,0,0,1-.67-1.5,2.74,2.74,0,0,1,1.49-2.45,8.23,8.23,0,0,1,4.24-.9V8.15q0-1.29-1.83-1.29a3,3,0,0,0-1.32.26c-.36.18-.54.35-.54.52.16.16.3.32.44.49a.86.86,0,0,1,.21.57.93.93,0,0,1-.27.7.86.86,0,0,1-.65.27c-.65,0-1-.36-1-1.08a1.82,1.82,0,0,1,1-1.55,4.91,4.91,0,0,1,2.64-.62,3.81,3.81,0,0,1,2.41.56,2.39,2.39,0,0,1,.65,1.9v5a1.72,1.72,0,0,0,.08.67c0,.13.18.19.38.19.41,0,.68-.29.8-.85ZM164.47,13V10.82a6.08,6.08,0,0,0-3,.58,1.83,1.83,0,0,0-1,1.69,1.74,1.74,0,0,0,.46,1.25,1.68,1.68,0,0,0,1.27.48,2.59,2.59,0,0,0,1.61-.48A1.59,1.59,0,0,0,164.47,13Z"/><path class="cls-1" d="M175.63,1.4a.89.89,0,0,1-.22.64.74.74,0,0,1-.56.24.8.8,0,0,1-.92-.9V1c0-.25-.2-.37-.58-.37a1.31,1.31,0,0,0-1.29,1,10.08,10.08,0,0,0-.37,3.23V6.65h1.8v.53h-1.8v7.71h1.73v.53h-5.2v-.53H170V7.18h-1.73V6.65H170V5.5q0-5.43,3.61-5.43a2.7,2.7,0,0,1,1.51.38A1.12,1.12,0,0,1,175.63,1.4Z"/><path class="cls-1" d="M183.73,10.34h-6.44V11a6.58,6.58,0,0,0,.56,3.16,2.21,2.21,0,0,0,2.06.94,3.34,3.34,0,0,0,2.09-.66,3.28,3.28,0,0,0,1.18-1.85h.51a3.69,3.69,0,0,1-4.05,3.09,4.4,4.4,0,0,1-3.2-1.27,4.21,4.21,0,0,1-1.29-3.13,4.82,4.82,0,0,1,1.31-3.45,4.26,4.26,0,0,1,3.25-1.41,4,4,0,0,1,2.82,1A4.39,4.39,0,0,1,183.73,10.34Zm-2.07-.65V9.46a3.46,3.46,0,0,0-.45-2,1.75,1.75,0,0,0-1.53-.62,2.11,2.11,0,0,0-1.71.71,3.21,3.21,0,0,0-.61,2.14Z"/><path class="cls-1" d="M12,38.9A3.52,3.52,0,0,1,10.43,42,7.63,7.63,0,0,1,6,43.05H.28v-.58H1.93v-14H.28v-.58h5.8q5.39,0,5.38,3.5a3.11,3.11,0,0,1-1,2.34A5.06,5.06,0,0,1,7.76,35v.09a5.75,5.75,0,0,1,3.09,1.37A3.25,3.25,0,0,1,12,38.9ZM9.14,31.49a3,3,0,0,0-.73-2.38A4.12,4.12,0,0,0,5.8,28.5H4.19v6.3h1.7a3.49,3.49,0,0,0,2.58-.71A3.8,3.8,0,0,0,9.14,31.49ZM9.46,39a4.05,4.05,0,0,0-.78-2.81A3.62,3.62,0,0,0,6,35.38H4.19v7.09h2a3.48,3.48,0,0,0,2.59-.73A4.06,4.06,0,0,0,9.46,39Z"/><path class="cls-1" d="M22.58,38H16.14v.67a6.44,6.44,0,0,0,.56,3.15,2.2,2.2,0,0,0,2.06.94A3.2,3.2,0,0,0,22,40.21h.51a3.7,3.7,0,0,1-4.06,3.09A4.37,4.37,0,0,1,15.28,42,4.19,4.19,0,0,1,14,38.9a4.85,4.85,0,0,1,1.31-3.45,4.23,4.23,0,0,1,3.24-1.4,3.91,3.91,0,0,1,2.82,1A4.37,4.37,0,0,1,22.58,38Zm-2.07-.65v-.23a3.48,3.48,0,0,0-.45-2,1.77,1.77,0,0,0-1.53-.62,2.12,2.12,0,0,0-1.71.71,3.21,3.21,0,0,0-.61,2.14Z"/><path class="cls-1" d="M32.48,40.28a4,4,0,0,1-1.38,2.24,4.09,4.09,0,0,1-2.56.78A4.31,4.31,0,0,1,25.34,42a4.41,4.41,0,0,1-1.24-3.22,4.65,4.65,0,0,1,1.32-3.36,4.55,4.55,0,0,1,3.4-1.37,4.07,4.07,0,0,1,2.46.69,2.08,2.08,0,0,1,.95,1.73,1,1,0,0,1-1.13,1.13.95.95,0,0,1-1-1,1.26,1.26,0,0,1,.33-.79c.22-.27.34-.43.34-.5s-.18-.4-.55-.56a3.43,3.43,0,0,0-1.39-.24,2.17,2.17,0,0,0-2,1,6.09,6.09,0,0,0-.62,3.14,6.54,6.54,0,0,0,.56,3.13,2,2,0,0,0,1.92,1,3.34,3.34,0,0,0,2-.65,3.5,3.5,0,0,0,1.21-1.86Z"/><path class="cls-1" d="M43.27,41.55a1.93,1.93,0,0,1-.58,1.31,1.86,1.86,0,0,1-1.31.48c-.9,0-1.4-.49-1.49-1.47a2.84,2.84,0,0,1-1.29,1.07,4.56,4.56,0,0,1-1.92.4,2.75,2.75,0,0,1-1.84-.56,1.84,1.84,0,0,1-.68-1.49,2.75,2.75,0,0,1,1.49-2.45,8.25,8.25,0,0,1,4.24-.9V35.77q0-1.29-1.83-1.29a2.93,2.93,0,0,0-1.32.27c-.35.17-.53.35-.53.52s.3.31.44.48a.92.92,0,0,1,.2.57,1,1,0,0,1-.26.71.93.93,0,0,1-.66.26q-1,0-1-1.08a1.8,1.8,0,0,1,1-1.54,4.84,4.84,0,0,1,2.64-.62A3.85,3.85,0,0,1,41,34.6a2.39,2.39,0,0,1,.64,1.9v5a2.06,2.06,0,0,0,.08.68c.05.12.18.18.38.18.42,0,.68-.28.81-.85Zm-3.38-.93V38.44a6.15,6.15,0,0,0-3,.58,1.84,1.84,0,0,0-1,1.69A1.72,1.72,0,0,0,36.37,42a1.69,1.69,0,0,0,1.28.49,2.58,2.58,0,0,0,1.6-.49A1.58,1.58,0,0,0,39.89,40.62Z"/><path class="cls-1" d="M54.14,43.05h-.49q-1.08,0-1.44,0a10.34,10.34,0,0,0-1,.2V41.34a3.49,3.49,0,0,1-1.34,1.43,3.62,3.62,0,0,1-1.89.51,2.79,2.79,0,0,1-2-.6,2.69,2.69,0,0,1-.6-2v-6H44v-.49h.5a12.43,12.43,0,0,0,2.47-.2v6.63a2.51,2.51,0,0,0,.29,1.45c.19.26.63.39,1.3.39a2.38,2.38,0,0,0,1.84-.87,3.24,3.24,0,0,0,.78-2.25V34.74H49.81v-.49h.39a19.15,19.15,0,0,0,2.72-.2v8.47h1.22Z"/><path class="cls-1" d="M62.68,40.3a2.86,2.86,0,0,1-.9,2.21,3.42,3.42,0,0,1-2.45.83,3.38,3.38,0,0,1-2.5-1.08l-.53.79h-.46v-3h.55a3.79,3.79,0,0,0,1.17,2,2.93,2.93,0,0,0,2,.7,2.39,2.39,0,0,0,1.61-.51,1.66,1.66,0,0,0,.6-1.34c0-.54-.39-.9-1.16-1.11q-.4-.11-1.77-.39a5.86,5.86,0,0,1-2.23-.83,2.14,2.14,0,0,1-.74-1.8,2.62,2.62,0,0,1,.8-2,2.92,2.92,0,0,1,2.15-.77A2.88,2.88,0,0,1,61,34.8l.46-.59h.32v2.55H61.3a2.43,2.43,0,0,0-2.51-2.25A2.34,2.34,0,0,0,57.3,35a1.42,1.42,0,0,0-.56,1.16c0,.54.42.92,1.27,1.13l2,.39C61.8,38,62.68,38.85,62.68,40.3Z"/><path class="cls-1" d="M73,38H66.59v.67a6.42,6.42,0,0,0,.57,3.15,2.19,2.19,0,0,0,2.06.94,3.39,3.39,0,0,0,2.08-.65,3.29,3.29,0,0,0,1.18-1.86H73a3.69,3.69,0,0,1-4,3.09A4.37,4.37,0,0,1,65.74,42a4.19,4.19,0,0,1-1.29-3.13,4.9,4.9,0,0,1,1.31-3.45A4.26,4.26,0,0,1,69,34.05a3.91,3.91,0,0,1,2.82,1A4.37,4.37,0,0,1,73,38ZM71,37.31v-.23a3.48,3.48,0,0,0-.45-2A1.77,1.77,0,0,0,69,34.46a2.16,2.16,0,0,0-1.72.71,3.21,3.21,0,0,0-.61,2.14Z"/><path class="cls-1" d="M78.54,42.72a3.71,3.71,0,0,1-.71,2.07,6.92,6.92,0,0,1-2,1.89l-.25-.42c1.47-1.1,2.21-2.16,2.21-3.17,0-.46-.11-.69-.32-.69a3.28,3.28,0,0,0-.35.41,1.17,1.17,0,0,1-1.69.11,1.1,1.1,0,0,1-.31-.82,1.36,1.36,0,0,1,.41-1,1.62,1.62,0,0,1,1.15-.4,1.75,1.75,0,0,1,1.34.58A2.09,2.09,0,0,1,78.54,42.72Z"/></g></g></svg>