<svg xmlns="http://www.w3.org/2000/svg" viewBox="0 0 136.97 205.44"><defs><style>.cls-1{fill:#d91226;}.cls-2{fill:#fff;}</style></defs><title>Asset 3</title><g id="Layer_2" data-name="Layer 2"><g id="Layer_1-2" data-name="Layer 1"><g id="Layer_1-2-2" data-name="Layer 1-2"><path class="cls-1" d="M68.47,0A68.49,68.49,0,0,0,8.21,101L64.72,203.23a4.29,4.29,0,0,0,7.49,0L128.75,101A68.5,68.5,0,0,0,68.47,0Z"/></g><circle class="cls-2" cx="34.52" cy="39.33" r="4.3"/><circle class="cls-2" cx="102.64" cy="39.33" r="4.3"/><polygon class="cls-2" points="68.48 24.34 71.8 31.06 79.21 32.14 73.84 37.37 75.11 44.76 68.48 41.27 61.85 44.76 63.11 37.37 57.75 32.14 65.16 31.06 68.48 24.34"/><polygon class="cls-2" points="32.27 48.13 35.45 97.37 49.13 96.05 48.07 58.37 32.27 48.13"/><polygon class="cls-2" points="68.48 50.16 53.1 58.37 54.07 95.78 83.01 95.78 84.07 58.37 68.48 50.16"/><polygon class="cls-2" points="104.63 48.66 89.1 58.46 87.86 95.78 101.71 97.37 104.63 48.66"/></g></g></svg>