<svg xmlns="http://www.w3.org/2000/svg" viewBox="0 0 136.95 205.42"><defs><style>.cls-1{fill:#d60037;}.cls-2{fill:#5c5b59;}</style></defs><title>Asset 1</title><g id="Layer_2" data-name="Layer 2"><g id="Layer_1-2" data-name="Layer 1"><path class="cls-1" d="M101,8.21A68.39,68.39,0,0,0,68.47,0V95.81h62.78A68.47,68.47,0,0,0,101,8.21Z"/><path class="cls-1" d="M5.69,95.81c.77,1.76,1.6,3.49,2.52,5.19L64.72,203.23a4.26,4.26,0,0,0,3.75,2.19V95.81Z"/><path class="cls-2" d="M68.47,205.42a4.12,4.12,0,0,0,2.06-.52,4.28,4.28,0,0,0,1.68-1.67L128.75,101c.92-1.71,1.74-3.44,2.5-5.19H68.47Z"/><path class="cls-2" d="M68.47,0A68.48,68.48,0,0,0,5.69,95.81H68.47Z"/></g></g></svg>