<svg xmlns="http://www.w3.org/2000/svg" viewBox="0 0 131 238.35"><defs><style>.cls-1,.cls-2{fill:none;stroke:#252e5b;stroke-miterlimit:10;}.cls-1{stroke-width:2px;}.cls-2{stroke-width:2.49px;}</style></defs><title>Asset 11</title><g id="Layer_2" data-name="Layer 2"><g id="Layer_1-2" data-name="Layer 1"><path class="cls-1" d="M55,3.89S80.45-12.83,94.21,34.18c0,0-2.12,20.53,4.24,34.3,0,0,15.32,18.92,15.56,37.06"/><path class="cls-1" d="M65.62,13.42S80.45,28.27,69.86,42"/><path class="cls-1" d="M63.86,16.24s.7,20.94-10.12,24.24"/><path class="cls-1" d="M71.62,16.24S91.38,24,85.15,43.3"/><path class="cls-1" d="M85.15,38.59S92.09,76,71.62,77.65a16.22,16.22,0,0,1-7.75-1.14"/><path class="cls-1" d="M60.8,22.36S53.27,45.42,47.62,45.89"/><path class="cls-1" d="M47.62,49.65s-8.23-12.47-9.88,0,8,13.18,8,13.18"/><path class="cls-1" d="M48.56,62.83s2.14,9.48-3.15,24.44"/><path class="cls-1" d="M55,5.42S25.5-1.62,22.45,42s-2.61,36.77-2.61,36.77S15.4,99,12.09,113.84C7.89,132.79,14,143,14,143l25.56-37.1"/><path class="cls-1" d="M71.62,77.65V94.12s-.54,4.43-4,5.42c-4.94,1.41-6.46,2.13-6.46-4.19"/><path class="cls-2" d="M71.62,91.3s53.18-32,58.12,87.77c0,0-8.23,13.06-29.06,9.68"/><path class="cls-1" d="M104.56,144s-2.1,16.24-5.17,24.7c-3.77,10.36,5.52,29.18,5.52,29.18l20.83,40"/><path class="cls-1" d="M12.09,145.18s27.11-35.33,30.5-45.55.09-8.56,8.33-26.45c0,0,12.23-20.94,9.88-10.35,0,0-5.88,10.59-7.06,17.41,0,0,.24-3.53,5.06-4.23,0,0,7.88,0,8.35,2.38,0,0,5.2,10.32-3.28,15,0,0-7.07,4-8.84,10.82S31.39,164.6,30.68,165,26,171.18,13,165Z"/><path class="cls-1" d="M12.89,110.6S2.92,116,1,150.36c0,0-1,14.82,7.4,20.23,0,0,.6,5.42,16.37,4.71a16.1,16.1,0,0,0,12.75-12.71c2.54-11.29,0-13.54,0-13.54"/><path class="cls-1" d="M24.8,175.3s8.94,5.88,2.59,25.88S2.92,236.24,2.92,236.24"/><line class="cls-1" x1="77.03" y1="43.3" x2="77.03" y2="48.95"/><line class="cls-1" x1="60.8" y1="44.11" x2="60.8" y2="48.95"/><path class="cls-1" d="M75.08,38.59s3.37-4.23,8.78,0"/><path class="cls-1" d="M63.87,40.48s-5.2-6.24-8.84-1.89"/><path class="cls-1" d="M71.62,49s.33,5.17,2,7.29c0,0-3.6,2.59-4.94.94"/><path class="cls-1" d="M71.62,68.24s-2.82-4.47-4.47,0C67.15,68.24,69.27,73.65,71.62,68.24Z"/><path class="cls-1" d="M57.74,80.24s-1.1-4.33,10-.33"/><path class="cls-1" d="M59.45,84s-.4-4.11,9.1-1.05"/><path class="cls-1" d="M61.83,87.77s-2.27-4.1,7.23-1"/><line class="cls-1" x1="123.31" y1="185" x2="118.35" y2="223.7"/><line class="cls-1" x1="107.39" y1="189.3" x2="106.25" y2="200.46"/></g></g></svg>