<svg xmlns="http://www.w3.org/2000/svg" viewBox="0 0 131 238.35"><defs><style>.cls-1,.cls-2{fill:none;stroke:#252e5b;stroke-miterlimit:10;}.cls-1{stroke-width:2px;}.cls-2{stroke-width:2.49px;}</style></defs><title>Asset 12</title><g id="Layer_2" data-name="Layer 2"><g id="Layer_1-2" data-name="Layer 1"><path class="cls-1" d="M76,3.89S50.56-12.83,36.79,34.18c0,0,2.12,20.53-4.23,34.3,0,0-27.21,14.82-15.57,37.06"/><path class="cls-1" d="M65.38,13.42S50.56,28.27,61.14,42"/><path class="cls-1" d="M67.14,16.24s-.7,20.94,10.12,24.24"/><path class="cls-1" d="M59.38,16.24S39.62,24,45.85,43.3"/><path class="cls-1" d="M45.85,38.59S38.91,76,59.38,77.65a16.21,16.21,0,0,0,7.75-1.14"/><path class="cls-1" d="M70.2,22.36s7.53,23.06,13.18,23.53"/><path class="cls-1" d="M83.38,49.65s8.23-12.47,9.88,0-8,13.18-8,13.18"/><path class="cls-1" d="M82.44,62.83S80.3,72.31,85.6,87.27"/><path class="cls-1" d="M76,5.42s29.53-7,32.59,36.6,8.7,45,8.7,45,9.91,14,1.65,26.77c-13.3,20.64-4.2,25.78-4.2,25.78L91.46,105.88"/><path class="cls-1" d="M59.38,77.65V94.12s.54,4.43,4,5.42c4.94,1.41,9.91,1.95,9.34-1.91"/><path class="cls-2" d="M59.38,91.3S6.2,59.3,1.26,179.07c0,0,8.23,13.06,29.06,9.68"/><path class="cls-1" d="M26.44,144s2.1,16.24,5.17,24.7c3.77,10.36-5.52,29.18-5.52,29.18l-20.83,40"/><path class="cls-1" d="M118.91,145.18S91.8,109.85,88.42,99.63s-.1-8.56-8.33-26.45c0,0-12.24-20.94-9.89-10.35,0,0,5.89,10.59,7.06,17.41,0,0-.24-3.53-5.06-4.23,0,0-7.88,0-8.35,2.38,0,0-5.2,10.32,3.28,15,0,0,7.07,4,8.84,10.82S99.61,164.6,100.32,165s4.71,6.17,17.65,0Z"/><path class="cls-1" d="M120.65,110.51s7.44,5.5,9.32,39.85c0,0,1,14.82-7.4,20.23,0,0-.6,5.42-16.37,4.71a16.1,16.1,0,0,1-12.75-12.71c-2.54-11.29,0-13.54,0-13.54"/><path class="cls-1" d="M106.2,175.3s-8.94,5.88-2.59,25.88,24.48,35.06,24.48,35.06"/><line class="cls-1" x1="53.97" y1="43.3" x2="53.97" y2="48.95"/><line class="cls-1" x1="70.2" y1="44.11" x2="70.2" y2="48.95"/><path class="cls-1" d="M55.93,38.59s-3.37-4.23-8.79,0"/><path class="cls-1" d="M67.13,40.48s5.2-6.24,8.84-1.89"/><path class="cls-1" d="M59.38,49s-.33,5.17-2.05,7.29c0,0,3.6,2.59,4.94.94"/><path class="cls-1" d="M59.38,68.24s2.82-4.47,4.47,0C63.85,68.24,61.73,73.65,59.38,68.24Z"/><path class="cls-1" d="M73.26,80.24s1.1-4.33-10-.33"/><path class="cls-1" d="M71.55,84S72,79.9,62.45,83"/><path class="cls-1" d="M69.17,87.77s2.27-4.1-7.23-1"/><line class="cls-1" x1="7.7" y1="185" x2="12.65" y2="223.7"/><line class="cls-1" x1="23.62" y1="189.3" x2="24.75" y2="200.46"/></g></g></svg>