<svg xmlns="http://www.w3.org/2000/svg" viewBox="0 0 175.93 289.38"><defs><style>.cls-1,.cls-2{fill:none;stroke:#252e5b;stroke-miterlimit:10;}.cls-1{stroke-width:2px;}.cls-2{stroke-width:2.49px;}.cls-3{font-size:88.73px;fill:#252e5b;font-family:MyriadPro-Regular, Myriad Pro;}</style></defs><title>Asset 10</title><g id="Layer_2" data-name="Layer 2"><g id="Layer_1-2" data-name="Layer 1"><path class="cls-1" d="M76,54.92S50.56,38.2,36.79,85.21c0,0,2.12,20.54-4.23,34.3,0,0-27.21,14.82-15.57,37.06"/><path class="cls-1" d="M65.38,64.45S50.56,79.3,61.14,93.05"/><path class="cls-1" d="M67.14,67.27s-.7,21,10.12,24.24"/><path class="cls-1" d="M59.38,67.27S39.62,75,45.85,94.33"/><path class="cls-1" d="M45.85,89.63S38.91,127,59.38,128.69a16.35,16.35,0,0,0,7.75-1.14"/><path class="cls-1" d="M70.2,73.39s7.53,23.06,13.18,23.53"/><path class="cls-1" d="M83.38,100.69s8.23-12.47,9.88,0-8,13.17-8,13.17"/><path class="cls-1" d="M82.44,113.86s-2.14,9.48,3.16,24.44"/><path class="cls-1" d="M76,56.45s29.53-7,32.59,36.6,8.7,45.05,8.7,45.05,9.91,14,1.65,26.78c-13.3,20.63-4.2,25.78-4.2,25.78L91.46,156.91"/><path class="cls-1" d="M59.38,128.69v16.47s.54,4.42,4,5.41c4.94,1.41,6.46,2.14,6.46-4.19"/><path class="cls-2" d="M59.38,142.33S6.2,110.33,1.26,230.1c0,0,8.23,13.07,29.06,9.68"/><path class="cls-1" d="M26.44,195s2.1,16.24,5.17,24.71c3.77,10.35-5.52,29.17-5.52,29.17l-20.83,40"/><path class="cls-1" d="M118.91,196.22S91.8,160.88,88.42,150.67s-.1-8.57-8.33-26.45c0,0-12.24-21-9.89-10.36,0,0,5.89,10.59,7.06,17.41,0,0-.24-3.52-5.06-4.23,0,0-7.88,0-8.35,2.38,0,0-5.2,10.33,3.28,15,0,0,7.07,4,8.84,10.82S99.61,215.63,100.32,216s4.71,6.18,17.65,0Z"/><path class="cls-1" d="M120.65,161.54s7.44,5.5,9.32,39.85c0,0,1,14.83-7.4,20.24,0,0-.6,5.41-16.37,4.7a16.1,16.1,0,0,1-12.75-12.7c-2.54-11.3,0-13.55,0-13.55"/><path class="cls-1" d="M106.2,226.33s-8.94,5.89-2.59,25.89,24.48,35,24.48,35"/><line class="cls-1" x1="53.97" y1="94.33" x2="53.97" y2="99.98"/><line class="cls-1" x1="70.2" y1="95.14" x2="70.2" y2="99.98"/><path class="cls-1" d="M55.93,89.63s-3.37-4.24-8.79,0"/><path class="cls-1" d="M67.13,91.51s5.2-6.23,8.84-1.88"/><path class="cls-1" d="M59.38,100s-.33,5.18-2.05,7.29c0,0,3.6,2.59,4.94,1"/><path class="cls-1" d="M59.38,119.27s2.82-4.47,4.47,0C63.85,119.27,61.73,124.69,59.38,119.27Z"/><path class="cls-1" d="M73.26,131.27s1.1-4.33-10-.33"/><path class="cls-1" d="M71.55,135s.41-4.11-9.1-1"/><path class="cls-1" d="M69.17,138.8s2.27-4.1-7.23-1"/><text class="cls-3" transform="translate(116.99 74.04) rotate(4.52) scale(1.48 1)">?</text></g></g></svg>